<?xml version="1.0" standalone="no"?>
<!DOCTYPE svg PUBLIC "-//W3C//DTD SVG 20010904//EN"
 "http://www.w3.org/TR/2001/REC-SVG-20010904/DTD/svg10.dtd">
<svg version="1.0" xmlns="http://www.w3.org/2000/svg"
 width="421.000000pt" height="384.000000pt" viewBox="0 0 421.000000 384.000000"
 preserveAspectRatio="xMidYMid meet">

<defs>
<linearGradient id="antiForgetGradient" x1="0%" y1="0%" x2="100%" y2="100%">
<stop offset="0%" style="stop-color:#2563eb;stop-opacity:1" />
<stop offset="52%" style="stop-color:#14b8a6;stop-opacity:1" />
<stop offset="100%" style="stop-color:#22c55e;stop-opacity:1" />
</linearGradient>
</defs>

<g transform="translate(0.000000,384.000000) scale(0.100000,-0.100000)"
fill="url(#antiForgetGradient)" stroke="none">
<path d="M3360 3819 c-72 -15 -101 -90 -60 -156 43 -72 167 -46 185 39 16 73
-49 134 -125 117z"/>
<path d="M3842 3770 c-74 -46 -70 -155 8 -195 50 -26 98 -19 136 19 97 97 -26
248 -144 176z"/>
<path d="M2973 3596 c-55 -25 -79 -101 -51 -161 7 -15 28 -35 49 -45 65 -34
138 -9 165 56 42 100 -62 196 -163 150z"/>
<path d="M3474 3481 c-126 -57 -134 -230 -14 -291 85 -43 180 -16 230 65 47
76 10 188 -74 226 -52 23 -90 23 -142 0z"/>
<path d="M2352 3429 c-97 -16 -186 -76 -230 -154 -18 -32 -18 -39 -25 -691 -2
-232 -4 -254 -21 -273 -24 -26 -38 -26 -62 0 -18 20 -19 47 -24 474 l-5 453
-31 39 c-67 83 -158 118 -304 117 -236 -1 -429 -137 -501 -351 -17 -51 -24
-63 -38 -58 -135 53 -319 6 -437 -112 -75 -75 -114 -161 -121 -263 l-5 -75 96
-94 c53 -52 96 -98 96 -103 0 -4 -41 13 -91 39 -76 40 -101 48 -157 51 -93 5
-163 -28 -254 -119 -126 -127 -199 -329 -202 -559 0 -63 3 -141 7 -173 20
-147 93 -328 182 -452 150 -210 370 -332 645 -357 138 -12 183 -28 204 -73 22
-46 20 -121 -5 -191 -30 -82 -31 -211 -2 -274 26 -57 82 -113 145 -144 43 -22
62 -25 138 -23 49 1 94 7 99 12 7 7 6 23 -4 50 -35 98 -4 218 76 296 83 81
205 111 434 108 107 -2 144 2 208 20 172 47 290 137 354 270 20 42 38 77 39
79 1 2 17 -6 35 -17 75 -43 177 -65 304 -65 131 0 192 12 330 66 218 84 389
270 441 478 16 64 16 222 0 249 -5 8 -112 11 -377 11 l-369 0 -12 26 c-9 18
-9 30 -1 42 9 15 41 18 254 23 391 10 455 23 528 106 168 190 84 539 -149 624
l-57 21 0 46 c0 50 -27 126 -42 120 -10 -3 -11 -4 -386 -357 -137 -129 -277
-260 -310 -291 -56 -52 -224 -207 -410 -380 -664 -618 -645 -602 -742 -608
-53 -4 -68 0 -113 24 -54 29 -193 171 -410 418 -58 66 -143 163 -189 215 -93
106 -120 155 -121 218 0 102 118 129 306 68 143 -47 321 -154 486 -292 l77
-64 268 203 c753 573 773 588 1089 832 120 93 267 206 326 250 59 45 107 86
108 92 0 7 -18 28 -40 47 -104 95 -238 118 -375 66 -62 -24 -65 -24 -65 1 0
35 -39 120 -80 173 -119 156 -297 221 -508 186z"/>
<path d="M3959 3221 c-50 -51 -36 -136 29 -167 50 -24 99 -10 130 36 69 102
-72 218 -159 131z"/>
<path d="M3701 2887 c-85 -32 -131 -139 -95 -218 36 -80 106 -118 196 -106 51
7 86 32 115 83 44 76 19 180 -53 225 -41 25 -119 33 -163 16z"/>
</g>
</svg>
